<svg width="32" height="32" viewBox="0 0 32 32" fill="none" xmlns="http://www.w3.org/2000/svg">
<path d="M30.2328 0H1.76619C0.791411 0 0 0.789831 0 1.76619V30.2328C0 31.2091 0.791411 32 1.76619 32H17.0917V19.6077H12.9218V14.7776H17.0917V11.2157C17.0917 7.08319 19.6151 4.83172 23.3024 4.83172C25.0701 4.83172 26.5861 4.96397 27.0281 5.02141V9.34097L24.4705 9.34203C22.4657 9.34203 22.0789 10.2952 22.0789 11.6931V14.776H26.8622L26.2367 19.6056H22.0784V31.9984H30.2322C31.2081 31.9984 32 31.2065 32 30.2328V1.76513C31.9995 0.789831 31.2086 0 30.2328 0Z" fill="#FFAA31"/>
</svg>
