<svg width="235" height="199" viewBox="0 0 235 199" fill="none" xmlns="http://www.w3.org/2000/svg">
<path d="M59.7554 0.0368229C59.7946 0.0502489 59.8242 0.0600726 59.8489 0.0682629C59.9244 0.0932817 59.9539 0.10306 60.0698 0.153722L117.5 31.3069L174.93 0.153722C174.93 0.153722 175.315 0 175.686 0L175.904 0.0368229C175.943 0.0503063 175.973 0.0601565 175.997 0.0683678C176.072 0.0933092 176.102 0.10313 176.217 0.153722L234.291 31.656L234.453 31.7681L234.638 31.9394L234.818 32.1828L234.925 32.4261C234.936 32.4786 234.949 32.5421 234.961 32.5957C234.975 32.6597 234.986 32.7095 234.986 32.7095L235 32.8472V166.167C234.963 166.523 234.95 166.551 234.883 166.689C234.865 166.726 234.844 166.77 234.818 166.83L234.638 167.073L234.41 167.275L234.291 167.357L176.217 198.859C176.217 198.859 175.635 199.062 175.282 198.981C175.116 198.943 175.046 198.911 174.966 198.875C174.954 198.87 174.942 198.864 174.93 198.859L117.5 167.706L60.0698 198.859C60.0698 198.859 59.3777 199.07 58.958 198.929C58.9525 198.928 58.8804 198.902 58.7817 198.859L0.707809 167.357L0.546734 167.245L0.360704 167.073L0.18187 166.83C0.0751788 166.587 0.0142345 166.303 0.0142345 166.303L0 166.167V32.8472C0.00607837 32.788 0.0158356 32.6999 0.0158356 32.6999L0.0756585 32.4261L0.198028 32.1571L0.360704 31.9394L0.590081 31.7377L0.707809 31.656L58.7817 0.153722C58.7817 0.153722 59.2462 -0.0480371 59.7554 0.0368229ZM121.379 165.602L120.336 166.167L175.574 196.131L230.811 166.167L221.38 161.051L175.574 136.204C157.509 146.002 139.445 155.801 121.379 165.602ZM41.4312 145.964L4.18896 166.167L59.4259 196.131L114.663 166.167L77.4204 145.964L59.4259 136.204L41.4312 145.964ZM118.852 163.893L174.223 133.858V65.1549L118.852 35.1192V163.893ZM60.7777 65.1549V133.858L116.149 163.893V35.1192C107.369 39.8817 98.5891 44.6442 89.8096 49.4067C80.1324 54.6561 70.4553 59.9055 60.7777 65.1549ZM176.926 65.1549V133.858L232.297 163.893V35.1192C213.839 45.1311 195.382 55.143 176.926 65.1549ZM2.7036 163.893L56.2315 134.859L58.0741 133.858V65.1549L12.5885 40.4814L2.7036 35.1192V163.893ZM120.336 32.8472L175.574 62.8108L230.811 32.8472L175.574 2.88364L120.336 32.8472ZM4.18896 32.8472L59.4259 62.8108L102.751 39.3078L114.663 32.8472L59.4259 2.88364L4.18896 32.8472Z" fill="#FFAA31"/>
<path d="M59.7554 0.0368229C59.7946 0.0502489 59.8242 0.0600726 59.8489 0.0682629C59.9244 0.0932817 59.9539 0.10306 60.0698 0.153722L117.5 31.3069L174.93 0.153722C174.93 0.153722 175.315 0 175.686 0L175.904 0.0368229C175.943 0.0503063 175.973 0.0601565 175.997 0.0683678C176.072 0.0933092 176.102 0.10313 176.217 0.153722L234.291 31.656L234.453 31.7681L234.638 31.9394L234.818 32.1828L234.925 32.4261C234.936 32.4786 234.949 32.5421 234.961 32.5957C234.975 32.6597 234.986 32.7095 234.986 32.7095L235 32.8472V166.167C234.963 166.523 234.95 166.551 234.883 166.689C234.865 166.726 234.844 166.77 234.818 166.83L234.638 167.073L234.41 167.275L234.291 167.357L176.217 198.859C176.217 198.859 175.635 199.062 175.282 198.981C175.116 198.943 175.046 198.911 174.966 198.875C174.954 198.87 174.942 198.864 174.93 198.859L117.5 167.706L60.0698 198.859C60.0698 198.859 59.3777 199.07 58.958 198.929C58.9525 198.928 58.8804 198.902 58.7817 198.859L0.707809 167.357L0.546734 167.245L0.360704 167.073L0.18187 166.83C0.0751788 166.587 0.0142345 166.303 0.0142345 166.303L0 166.167V32.8472C0.00607837 32.788 0.0158356 32.6999 0.0158356 32.6999L0.0756585 32.4261L0.198028 32.1571L0.360704 31.9394L0.590081 31.7377L0.707809 31.656L58.7817 0.153722C58.7817 0.153722 59.2462 -0.0480371 59.7554 0.0368229ZM121.379 165.602L120.336 166.167L175.574 196.131L230.811 166.167L221.38 161.051L175.574 136.204C157.509 146.002 139.445 155.801 121.379 165.602ZM41.4312 145.964L4.18896 166.167L59.4259 196.131L114.663 166.167L77.4204 145.964L59.4259 136.204L41.4312 145.964ZM118.852 163.893L174.223 133.858V65.1549L118.852 35.1192V163.893ZM60.7777 65.1549V133.858L116.149 163.893V35.1192C107.369 39.8817 98.5891 44.6442 89.8096 49.4067C80.1324 54.6561 70.4553 59.9055 60.7777 65.1549ZM176.926 65.1549V133.858L232.297 163.893V35.1192C213.839 45.1311 195.382 55.143 176.926 65.1549ZM2.7036 163.893L56.2315 134.859L58.0741 133.858V65.1549L12.5885 40.4814L2.7036 35.1192V163.893ZM120.336 32.8472L175.574 62.8108L230.811 32.8472L175.574 2.88364L120.336 32.8472ZM4.18896 32.8472L59.4259 62.8108L102.751 39.3078L114.663 32.8472L59.4259 2.88364L4.18896 32.8472Z" stroke="black"/>
</svg>
