<svg width="32" height="24" viewBox="0 0 32 24" fill="none" xmlns="http://www.w3.org/2000/svg">
<path fill-rule="evenodd" clip-rule="evenodd" d="M30.4 1.79999C31.3379 2.8363 31.6689 5.18182 31.6689 5.18182C31.6689 5.18182 32 7.96362 32 10.7454V13.3091C32 16.0364 31.6689 18.8182 31.6689 18.8182C31.6689 18.8182 31.338 21.1636 30.4 22.2C29.2457 23.4449 27.9417 23.5553 27.2947 23.61C27.2614 23.6129 27.2298 23.6155 27.2 23.6182C22.731 24 16 24 16 24C16 24 7.66895 23.9454 5.13107 23.6728C4.99625 23.642 4.8302 23.619 4.64139 23.5928C3.8259 23.4796 2.58563 23.3074 1.60001 22.2001C0.66214 21.1637 0.331055 18.8182 0.331055 18.8182C0.331055 18.8182 0 16.091 0 13.3091V10.7455C0 7.96362 0.331055 5.18182 0.331055 5.18182C0.331055 5.18182 0.606873 2.83643 1.60001 1.79999C2.75433 0.555054 4.05832 0.444702 4.70529 0.389954C4.73865 0.387146 4.77023 0.38446 4.79999 0.381775C9.26895 0.0545654 16 0 16 0C16 0 22.731 0.0545654 27.2 0.381775C27.2461 0.385925 27.2966 0.389771 27.3512 0.393921C28.0154 0.444214 29.2784 0.539917 30.4 1.79999ZM12.1379 18.3273V6.49091L22.6207 12.5455L12.1379 18.3273Z" fill="#FFAA31"/>
</svg>
